<svg width="341" height="116" viewBox="0 0 341 116" fill="none" xmlns="http://www.w3.org/2000/svg">
<path d="M20.762 81.584C20.762 86.2773 22.426 90.288 25.754 93.616C29.082 96.944 33.0927 98.608 37.786 98.608C42.4793 98.608 46.49 96.944 49.818 93.616C53.2313 90.288 54.938 86.2773 54.938 81.584C54.938 76.8053 53.274 72.752 49.946 69.424C46.618 66.096 42.6073 64.432 37.914 64.432C29.978 64.432 23.2367 61.6587 17.69 56.112C12.1433 50.5653 9.37 43.8667 9.37 36.016C9.37 28.1653 12.1433 21.4667 17.69 15.92C23.2367 10.3733 29.9353 7.6 37.786 7.6C45.6367 7.6 52.3353 10.3733 57.882 15.92C63.4287 21.4667 66.202 28.1653 66.202 36.016H54.938C54.938 31.3227 53.2313 27.312 49.818 23.984C46.49 20.656 42.4793 18.992 37.786 18.992C33.0927 18.992 29.082 20.656 25.754 23.984C22.426 27.312 20.762 31.3227 20.762 36.016C20.762 40.7093 22.426 44.7627 25.754 48.176C29.082 51.504 33.1353 53.168 37.914 53.168C45.7647 53.168 52.4207 55.9413 57.882 61.488C63.4287 67.0347 66.202 73.7333 66.202 81.584C66.202 89.4347 63.4287 96.1333 57.882 101.68C52.3353 107.227 45.6367 110 37.786 110C29.9353 110 23.2367 107.227 17.69 101.68C12.1433 96.1333 9.37 89.4347 9.37 81.584H20.762ZM133.797 58.8C133.797 72.88 128.762 84.9547 118.693 95.024C108.709 105.008 96.677 110 82.597 110H76.965V7.6H82.597C96.677 7.6 108.709 12.6347 118.693 22.704C128.762 32.688 133.797 44.72 133.797 58.8ZM122.405 58.8C122.405 48.816 119.12 40.112 112.549 32.688C106.064 25.264 97.9997 20.8267 88.357 19.376V98.224C97.9997 96.7733 106.064 92.336 112.549 84.912C119.12 77.4027 122.405 68.6987 122.405 58.8ZM195.885 18.992H156.077V75.824H195.885V87.216H156.077V98.608H195.885V110H144.685V7.6H195.885V18.992ZM204.405 110V7.6H215.797V13.232C220.832 9.47733 226.506 7.6 232.821 7.6C240.672 7.6 247.37 10.3733 252.917 15.92C258.549 21.4667 261.365 28.1653 261.365 36.016L261.237 110H249.973V36.016C249.973 31.3227 248.266 27.312 244.853 23.984C241.525 20.656 237.514 18.992 232.821 18.992C228.128 18.992 224.117 20.656 220.789 23.984C217.461 27.312 215.797 31.3227 215.797 36.016V110H204.405ZM324.822 18.992C313.985 18.992 304.641 22.8747 296.79 30.64C289.025 38.4053 285.142 47.792 285.142 58.8C285.142 68.6987 288.385 77.4027 294.87 84.912C301.441 92.336 309.547 96.7733 319.19 98.224V87.216H313.558V75.824H330.582V110H324.95C310.87 110 298.795 105.008 288.726 95.024C278.742 84.9547 273.75 72.88 273.75 58.8C273.75 44.72 278.742 32.688 288.726 22.704C298.795 12.6347 310.87 7.6 324.95 7.6L324.822 18.992Z" fill="#2B00A5"/>
<path d="M20.762 81.584H21.762V80.584H20.762V81.584ZM49.818 93.616L49.1198 92.8999L49.1109 92.9089L49.818 93.616ZM49.946 69.424L49.2389 70.1311L49.2389 70.1311L49.946 69.424ZM17.69 56.112L18.3971 55.4049L18.3971 55.4049L17.69 56.112ZM57.882 15.92L57.1749 16.6271L57.1749 16.6271L57.882 15.92ZM66.202 36.016V37.016H67.202V36.016H66.202ZM54.938 36.016H53.938V37.016H54.938V36.016ZM49.818 23.984L49.1108 24.6912L49.1199 24.7L49.818 23.984ZM25.754 23.984L25.0469 23.2769L25.0469 23.2769L25.754 23.984ZM25.754 48.176L25.0379 48.8742L25.0469 48.8831L25.754 48.176ZM57.882 61.488L57.1694 62.1896L57.1749 62.1951L57.882 61.488ZM57.882 101.68L57.1749 100.973L57.1749 100.973L57.882 101.68ZM9.37 81.584V80.584H8.37V81.584H9.37ZM19.762 81.584C19.762 86.5434 21.5319 90.8082 25.0469 94.3231L26.4611 92.9089C23.32 89.7678 21.762 86.0113 21.762 81.584H19.762ZM25.0469 94.3231C28.5618 97.8381 32.8266 99.608 37.786 99.608V97.608C33.3587 97.608 29.6022 96.0499 26.4611 92.9089L25.0469 94.3231ZM37.786 99.608C42.7454 99.608 47.0102 97.8381 50.5251 94.3231L49.1109 92.9089C45.9698 96.0499 42.2133 97.608 37.786 97.608V99.608ZM50.5161 94.332C54.119 90.8191 55.938 86.5517 55.938 81.584H53.938C53.938 86.003 52.3436 89.7569 49.1199 92.9L50.5161 94.332ZM55.938 81.584C55.938 76.5447 54.1718 72.2356 50.6531 68.7169L49.2389 70.1311C52.3761 73.2684 53.938 77.066 53.938 81.584H55.938ZM50.6531 68.7169C47.1382 65.2019 42.8734 63.432 37.914 63.432V65.432C42.3413 65.432 46.0978 66.99 49.2389 70.1311L50.6531 68.7169ZM37.914 63.432C30.2397 63.432 23.7538 60.7616 18.3971 55.4049L16.9829 56.8191C22.7195 62.5558 29.7163 65.432 37.914 65.432V63.432ZM18.3971 55.4049C13.0381 50.0459 10.37 43.6017 10.37 36.016H8.37C8.37 44.1316 11.2485 51.0847 16.9829 56.8191L18.3971 55.4049ZM10.37 36.016C10.37 28.4303 13.0381 21.9861 18.3971 16.6271L16.9829 15.2129C11.2485 20.9473 8.37 27.9004 8.37 36.016H10.37ZM18.3971 16.6271C23.7561 11.2681 30.2003 8.6 37.786 8.6V6.6C29.6704 6.6 22.7173 9.47851 16.9829 15.2129L18.3971 16.6271ZM37.786 8.6C45.3717 8.6 51.8159 11.2681 57.1749 16.6271L58.5891 15.2129C52.8547 9.47851 45.9016 6.6 37.786 6.6V8.6ZM57.1749 16.6271C62.5338 21.9861 65.202 28.4303 65.202 36.016H67.202C67.202 27.9004 64.3235 20.9473 58.5891 15.2129L57.1749 16.6271ZM66.202 35.016H54.938V37.016H66.202V35.016ZM55.938 36.016C55.938 31.0483 54.119 26.7809 50.5161 23.268L49.1199 24.7C52.3436 27.8431 53.938 31.597 53.938 36.016H55.938ZM50.5251 23.2769C47.0102 19.7619 42.7454 17.992 37.786 17.992V19.992C42.2133 19.992 45.9698 21.55 49.1109 24.6911L50.5251 23.2769ZM37.786 17.992C32.8266 17.992 28.5618 19.7619 25.0469 23.2769L26.4611 24.6911C29.6022 21.55 33.3587 19.992 37.786 19.992V17.992ZM25.0469 23.2769C21.5319 26.7918 19.762 31.0566 19.762 36.016H21.762C21.762 31.5887 23.32 27.8322 26.4611 24.6911L25.0469 23.2769ZM19.762 36.016C19.762 40.9747 21.5311 45.2773 25.038 48.8741L26.47 47.4779C23.3209 44.248 21.762 40.4439 21.762 36.016H19.762ZM25.0469 48.8831C28.5656 52.4018 32.8747 54.168 37.914 54.168V52.168C33.396 52.168 29.5984 50.6061 26.4611 47.4689L25.0469 48.8831ZM37.914 54.168C45.4993 54.168 51.8979 56.8357 57.1694 62.1896L58.5946 60.7864C52.9435 55.047 46.03 52.168 37.914 52.168V54.168ZM57.1749 62.1951C62.5338 67.5541 65.202 73.9983 65.202 81.584H67.202C67.202 73.4684 64.3235 66.5153 58.5891 60.7809L57.1749 62.1951ZM65.202 81.584C65.202 89.1697 62.5338 95.6139 57.1749 100.973L58.5891 102.387C64.3235 96.6527 67.202 89.6996 67.202 81.584H65.202ZM57.1749 100.973C51.8159 106.332 45.3717 109 37.786 109V111C45.9016 111 52.8547 108.121 58.5891 102.387L57.1749 100.973ZM37.786 109C30.2003 109 23.7561 106.332 18.3971 100.973L16.9829 102.387C22.7173 108.121 29.6704 111 37.786 111V109ZM18.3971 100.973C13.0381 95.6139 10.37 89.1697 10.37 81.584H8.37C8.37 89.6996 11.2485 96.6527 16.9829 102.387L18.3971 100.973ZM9.37 82.584H20.762V80.584H9.37V82.584ZM118.693 95.024L117.986 94.3169L117.986 94.3169L118.693 95.024ZM76.965 110H75.965V111H76.965V110ZM76.965 7.6V6.6H75.965V7.6H76.965ZM118.693 22.704L117.983 23.4081L117.989 23.4141L118.693 22.704ZM112.549 32.688L111.796 33.3459L111.8 33.3508L112.549 32.688ZM88.357 19.376L88.5058 18.3871L87.357 18.2143V19.376H88.357ZM88.357 98.224H87.357V99.3857L88.5058 99.2129L88.357 98.224ZM112.549 84.912L111.796 84.2535L111.796 84.2541L112.549 84.912ZM132.797 58.8C132.797 72.6114 127.87 84.4327 117.986 94.3169L119.4 95.7311C129.655 85.4766 134.797 73.1486 134.797 58.8H132.797ZM117.986 94.3169C108.189 104.114 96.4109 109 82.597 109V111C96.9431 111 109.229 105.902 119.4 95.7311L117.986 94.3169ZM82.597 109H76.965V111H82.597V109ZM77.965 110V7.6H75.965V110H77.965ZM76.965 8.6H82.597V6.6H76.965V8.6ZM82.597 8.6C96.4082 8.6 108.185 13.5266 117.983 23.4081L119.403 21.9999C109.233 11.7427 96.9458 6.6 82.597 6.6V8.6ZM117.989 23.4141C127.87 33.2118 132.797 44.9888 132.797 58.8H134.797C134.797 44.4512 129.654 32.1642 119.397 21.9939L117.989 23.4141ZM123.405 58.8C123.405 48.5737 120.032 39.6335 113.298 32.0252L111.8 33.3508C118.208 40.5905 121.405 49.0583 121.405 58.8H123.405ZM113.302 32.0301C106.663 24.4298 98.3855 19.8735 88.5058 18.3871L88.2082 20.3649C97.6138 21.7799 105.465 26.0982 111.796 33.3459L113.302 32.0301ZM87.357 19.376V98.224H89.357V19.376H87.357ZM88.5058 99.2129C98.3855 97.7265 106.663 93.1702 113.302 85.5699L111.796 84.2541C105.465 91.5018 97.6138 95.8201 88.2082 97.2351L88.5058 99.2129ZM113.302 85.5705C120.03 77.8805 123.405 68.943 123.405 58.8H121.405C121.405 68.4543 118.209 76.9248 111.796 84.2535L113.302 85.5705ZM195.885 18.992V19.992H196.885V18.992H195.885ZM156.077 18.992V17.992H155.077V18.992H156.077ZM156.077 75.824H155.077V76.824H156.077V75.824ZM195.885 75.824H196.885V74.824H195.885V75.824ZM195.885 87.216V88.216H196.885V87.216H195.885ZM156.077 87.216V86.216H155.077V87.216H156.077ZM156.077 98.608H155.077V99.608H156.077V98.608ZM195.885 98.608H196.885V97.608H195.885V98.608ZM195.885 110V111H196.885V110H195.885ZM144.685 110H143.685V111H144.685V110ZM144.685 7.6V6.6H143.685V7.6H144.685ZM195.885 7.6H196.885V6.6H195.885V7.6ZM195.885 17.992H156.077V19.992H195.885V17.992ZM155.077 18.992V75.824H157.077V18.992H155.077ZM156.077 76.824H195.885V74.824H156.077V76.824ZM194.885 75.824V87.216H196.885V75.824H194.885ZM195.885 86.216H156.077V88.216H195.885V86.216ZM155.077 87.216V98.608H157.077V87.216H155.077ZM156.077 99.608H195.885V97.608H156.077V99.608ZM194.885 98.608V110H196.885V98.608H194.885ZM195.885 109H144.685V111H195.885V109ZM145.685 110V7.6H143.685V110H145.685ZM144.685 8.6H195.885V6.6H144.685V8.6ZM194.885 7.6V18.992H196.885V7.6H194.885ZM204.405 110H203.405V111H204.405V110ZM204.405 7.6V6.6H203.405V7.6H204.405ZM215.797 7.6H216.797V6.6H215.797V7.6ZM215.797 13.232H214.797V15.2252L216.395 14.0336L215.797 13.232ZM252.917 15.92L252.21 16.6271L252.215 16.6325L252.917 15.92ZM261.365 36.016L262.365 36.0177V36.016H261.365ZM261.237 110V111H262.235L262.237 110.002L261.237 110ZM249.973 110H248.973V111H249.973V110ZM244.853 23.984L244.146 24.6912L244.155 24.7L244.853 23.984ZM220.789 23.984L220.082 23.2769L220.082 23.2769L220.789 23.984ZM215.797 110V111H216.797V110H215.797ZM205.405 110V7.6H203.405V110H205.405ZM204.405 8.6H215.797V6.6H204.405V8.6ZM214.797 7.6V13.232H216.797V7.6H214.797ZM216.395 14.0336C221.256 10.4085 226.721 8.6 232.821 8.6V6.6C226.292 6.6 220.408 8.54615 215.199 12.4304L216.395 14.0336ZM232.821 8.6C240.407 8.6 246.851 11.2681 252.21 16.6271L253.624 15.2129C247.89 9.47851 240.937 6.6 232.821 6.6V8.6ZM252.215 16.6325C257.658 21.9927 260.365 28.4353 260.365 36.016H262.365C262.365 27.8954 259.44 20.9407 253.619 15.2075L252.215 16.6325ZM260.365 36.0143L260.237 109.998L262.237 110.002L262.365 36.0177L260.365 36.0143ZM261.237 109H249.973V111H261.237V109ZM250.973 110V36.016H248.973V110H250.973ZM250.973 36.016C250.973 31.0483 249.154 26.7809 245.551 23.268L244.155 24.7C247.379 27.8431 248.973 31.597 248.973 36.016H250.973ZM245.56 23.2769C242.045 19.7619 237.78 17.992 232.821 17.992V19.992C237.248 19.992 241.005 21.55 244.146 24.6911L245.56 23.2769ZM232.821 17.992C227.862 17.992 223.597 19.7619 220.082 23.2769L221.496 24.6911C224.637 21.55 228.394 19.992 232.821 19.992V17.992ZM220.082 23.2769C216.567 26.7918 214.797 31.0566 214.797 36.016H216.797C216.797 31.5887 218.355 27.8322 221.496 24.6911L220.082 23.2769ZM214.797 36.016V110H216.797V36.016H214.797ZM215.797 109H204.405V111H215.797V109ZM324.822 18.992V19.992H325.811L325.822 19.0032L324.822 18.992ZM296.79 30.64L296.087 29.929L296.083 29.9329L296.79 30.64ZM294.87 84.912L294.113 85.5657L294.121 85.5748L294.87 84.912ZM319.19 98.224L319.041 99.2129L320.19 99.3857V98.224H319.19ZM319.19 87.216H320.19V86.216H319.19V87.216ZM313.558 87.216H312.558V88.216H313.558V87.216ZM313.558 75.824V74.824H312.558V75.824H313.558ZM330.582 75.824H331.582V74.824H330.582V75.824ZM330.582 110V111H331.582V110H330.582ZM288.726 95.024L288.016 95.7281L288.022 95.7341L288.726 95.024ZM288.726 22.704L288.019 21.9969L288.019 21.9969L288.726 22.704ZM324.95 7.6L325.95 7.61123L325.961 6.6H324.95V7.6ZM324.822 17.992C313.716 17.992 304.121 21.9824 296.087 29.929L297.493 31.351C305.161 23.7669 314.254 19.992 324.822 19.992V17.992ZM296.083 29.9329C288.13 37.8863 284.142 47.5275 284.142 58.8H286.142C286.142 48.0565 289.92 38.9244 297.497 31.3471L296.083 29.9329ZM284.142 58.8C284.142 68.9393 287.471 77.8751 294.113 85.5656L295.627 84.2584C289.298 76.9302 286.142 68.458 286.142 58.8H284.142ZM294.121 85.5748C300.845 93.1713 309.162 97.7267 319.041 99.2129L319.339 97.2351C309.932 95.82 302.037 91.5007 295.619 84.2492L294.121 85.5748ZM320.19 98.224V87.216H318.19V98.224H320.19ZM319.19 86.216H313.558V88.216H319.19V86.216ZM314.558 87.216V75.824H312.558V87.216H314.558ZM313.558 76.824H330.582V74.824H313.558V76.824ZM329.582 75.824V110H331.582V75.824H329.582ZM330.582 109H324.95V111H330.582V109ZM324.95 109C311.136 109 299.314 104.114 289.43 94.3139L288.022 95.7341C298.277 105.902 310.604 111 324.95 111V109ZM289.436 94.3199C279.636 84.4364 274.75 72.6142 274.75 58.8H272.75C272.75 73.1458 277.848 85.473 288.016 95.7281L289.436 94.3199ZM274.75 58.8C274.75 44.9861 279.636 33.2082 289.433 23.4111L288.019 21.9969C277.848 32.1678 272.75 44.4539 272.75 58.8H274.75ZM289.433 23.4111C299.317 13.5269 311.139 8.6 324.95 8.6V6.6C310.601 6.6 298.273 11.7424 288.019 21.9969L289.433 23.4111ZM323.95 7.58876L323.822 18.9808L325.822 19.0032L325.95 7.61123L323.95 7.58876Z" fill="#2B00A5"/>
</svg>
