<svg width="39" height="42" viewBox="0 0 39 42" fill="none" xmlns="http://www.w3.org/2000/svg">
    <path d="M24 1H10C8.93913 1 7.92172 1.42143 7.17157 2.17157C6.42143 2.92172 6 3.93913 6 5V37C6 38.0609 6.42143 39.0783 7.17157 39.8284C7.92172 40.5786 8.93913 41 10 41H34C35.0609 41 36.0783 40.5786 36.8284 39.8284C37.5786 39.0783 38 38.0609 38 37V15M24 1L38 15M24 1V15H38" stroke="#D0D5DD" stroke-width="1.6" stroke-linecap="round" stroke-linejoin="round"/>
    <rect y="19" width="26" height="16" rx="2" fill="#D92D20"/>
    <path d="M3.6321 31V23.7273H6.50142C7.05303 23.7273 7.52296 23.8326 7.91122 24.0433C8.29948 24.2517 8.59541 24.5417 8.79901 24.9134C9.00497 25.2827 9.10795 25.7088 9.10795 26.1918C9.10795 26.6747 9.00379 27.1009 8.79545 27.4702C8.58712 27.8395 8.28527 28.1271 7.88991 28.3331C7.49692 28.5391 7.02107 28.642 6.46236 28.642H4.63352V27.4098H6.21378C6.50971 27.4098 6.75355 27.3589 6.94531 27.2571C7.13944 27.1529 7.28385 27.0097 7.37855 26.8274C7.47562 26.6428 7.52415 26.4309 7.52415 26.1918C7.52415 25.9503 7.47562 25.7396 7.37855 25.5597C7.28385 25.3774 7.13944 25.2365 6.94531 25.1371C6.75118 25.0353 6.50497 24.9844 6.20668 24.9844H5.16974V31H3.6321ZM12.6848 31H10.1067V23.7273H12.7061C13.4377 23.7273 14.0674 23.8729 14.5953 24.1641C15.1233 24.4529 15.5293 24.8684 15.8134 25.4105C16.0998 25.9527 16.2431 26.6013 16.2431 27.3565C16.2431 28.1141 16.0998 28.7652 15.8134 29.3097C15.5293 29.8542 15.1209 30.272 14.5882 30.5632C14.0579 30.8544 13.4235 31 12.6848 31ZM11.6444 29.6825H12.6209C13.0755 29.6825 13.4578 29.602 13.7679 29.4411C14.0804 29.2777 14.3148 29.0256 14.4711 28.6847C14.6297 28.3414 14.709 27.8987 14.709 27.3565C14.709 26.8191 14.6297 26.38 14.4711 26.0391C14.3148 25.6982 14.0816 25.4472 13.7715 25.2862C13.4614 25.1252 13.079 25.0447 12.6245 25.0447H11.6444V29.6825ZM17.3821 31V23.7273H22.1974V24.995H18.9197V26.728H21.8778V27.9957H18.9197V31H17.3821Z" fill="white"/>
</svg>
